STARTFONT 2.1
COMMENT
COMMENT Converted from TrueType font "albas.ttf" by "ttf2bdf 2.6".
COMMENT
FONT -FreeType-Alba Super-Medium-R-Normal--14-100-100-100-P-93-ISO10646-1
SIZE 10 100 100
FONTBOUNDINGBOX 21 28 -2 -10
STARTPROPERTIES 20
FOUNDRY "FreeType"
FAMILY_NAME "Alba Super"
WEIGHT_NAME "Medium"
SLANT "R"
SETWIDTH_NAME "Normal"
ADD_STYLE_NAME ""
PIXEL_SIZE 14
POINT_SIZE 100
RESOLUTION_X 100
RESOLUTION_Y 100
SPACING "P"
AVERAGE_WIDTH 93
CHARSET_REGISTRY "ISO10646"
CHARSET_ENCODING "1"
FONT_ASCENT 13
FONT_DESCENT 7
COPYRIGHT "Alba ©2001, Font"a"licious Fonts."
_TTF_FONTFILE "albas.ttf"
_TTF_PSNAME "AlbaSuper"
_XFREE86_GLYPH_RANGES "32_126 161_165 167_172 174_177 180_184 186_187 191_214 216_252 254_255 305 321_322 338_339 352_353 376 381_382 402 710_711 713 728_733 916 937 956 960 8208 8211_8212 8216_8218 8220_8222 8224_8226 8230 8240 8249_8250 8260 8482 8486 8706 8710 8719 8721 8729_8730 8734 8747 8776 8800 8804_8805 8946 9674 61441_61442"
ENDPROPERTIES
CHARS 239
STARTCHAR 0020
ENCODING 32
SWIDTH 288 0
DWIDTH 4 0
BBX 1 1 0 0
BITMAP
00
ENDCHAR
STARTCHAR 0021
ENCODING 33
SWIDTH 216 0
DWIDTH 3 0
BBX 4 13 0 -2
BITMAP
E0
90
90
90
90
90
90
90
F0
90
90
F0
E0
ENDCHAR
STARTCHAR 0022
ENCODING 34
SWIDTH 432 0
DWIDTH 6 0
BBX 7 7 0 4
BITMAP
6C
92
92
92
92
FE
7C
ENDCHAR
STARTCHAR 0023
ENCODING 35
SWIDTH 504 0
DWIDTH 7 0
BBX 8 10 0 1
BITMAP
3C
CA
81
81
89
81
81
81
7E
3C
ENDCHAR
STARTCHAR 0024
ENCODING 36
SWIDTH 432 0
DWIDTH 6 0
BBX 7 13 0 -2
BITMAP
30
28
2E
32
22
2E
2C
E8
88
98
E8
78
38
ENDCHAR
STARTCHAR 0025
ENCODING 37
SWIDTH 720 0
DWIDTH 10 0
BBX 11 16 0 -4
BITMAP
0300
7280
CC80
AC80
AC80
C980
F900
79C0
12E0
12A0
2220
2660
27E0
25C0
3800
1800
ENDCHAR
STARTCHAR 0026
ENCODING 38
SWIDTH 792 0
DWIDTH 11 0
BBX 12 9 0 0
BITMAP
0030
0050
7FD0
EB50
AB50
AB10
EB90
FFF0
7560
ENDCHAR
STARTCHAR 0027
ENCODING 39
SWIDTH 216 0
DWIDTH 3 0
BBX 4 7 0 4
BITMAP
60
90
90
90
90
F0
60
ENDCHAR
STARTCHAR 0028
ENCODING 40
SWIDTH 504 0
DWIDTH 7 0
BBX 8 15 0 -3
BITMAP
0E
31
41
CF
9E
98
90
90
90
98
CE
C1
71
3F
0E
ENDCHAR
STARTCHAR 0029
ENCODING 41
SWIDTH 504 0
DWIDTH 7 0
BBX 8 15 0 -3
BITMAP
70
8C
82
F3
79
19
09
09
09
19
73
83
8E
FC
70
ENDCHAR
STARTCHAR 002A
ENCODING 42
SWIDTH 432 0
DWIDTH 6 0
BBX 7 8 0 -1
BITMAP
30
68
C6
82
C6
84
7C
7C
ENDCHAR
STARTCHAR 002B
ENCODING 43
SWIDTH 432 0
DWIDTH 6 0
BBX 7 8 0 -1
BITMAP
38
28
C6
82
EE
EE
38
38
ENDCHAR
STARTCHAR 002C
ENCODING 44
SWIDTH 216 0
DWIDTH 3 0
BBX 4 7 0 -4
BITMAP
60
90
90
90
90
F0
60
ENDCHAR
STARTCHAR 002D
ENCODING 45
SWIDTH 216 0
DWIDTH 3 0
BBX 4 5 0 1
BITMAP
60
90
90
F0
60
ENDCHAR
STARTCHAR 002E
ENCODING 46
SWIDTH 216 0
DWIDTH 3 0
BBX 4 5 0 -2
BITMAP
60
90
90
F0
60
ENDCHAR
STARTCHAR 002F
ENCODING 47
SWIDTH 432 0
DWIDTH 6 0
BBX 7 16 0 -4
BITMAP
0C
0A
12
12
32
24
24
44
48
48
88
90
90
90
E0
E0
ENDCHAR
STARTCHAR 0030
ENCODING 48
SWIDTH 792 0
DWIDTH 11 0
BBX 12 13 0 -2
BITMAP
1F00
30C0
4020
CF20
9F90
9990
9090
9990
CF30
C020
70E0
3FC0
1F00
ENDCHAR
STARTCHAR 0031
ENCODING 49
SWIDTH 216 0
DWIDTH 3 0
BBX 4 13 0 -2
BITMAP
60
90
90
90
90
90
90
90
90
90
90
F0
60
ENDCHAR
STARTCHAR 0032
ENCODING 50
SWIDTH 576 0
DWIDTH 8 0
BBX 9 13 0 -2
BITMAP
3E00
6300
C100
9880
9C80
B480
F980
7180
4300
8080
8080
FF80
FF00
ENDCHAR
STARTCHAR 0033
ENCODING 51
SWIDTH 504 0
DWIDTH 7 0
BBX 8 13 0 -2
BITMAP
3C
42
81
99
99
E3
62
39
79
81
83
FE
7C
ENDCHAR
STARTCHAR 0034
ENCODING 52
SWIDTH 504 0
DWIDTH 7 0
BBX 8 13 0 -2
BITMAP
66
99
99
99
99
99
81
81
C1
79
39
0F
0E
ENDCHAR
STARTCHAR 0035
ENCODING 53
SWIDTH 504 0
DWIDTH 7 0
BBX 8 13 0 -2
BITMAP
7E
81
81
9F
86
83
F9
79
79
83
87
FE
7C
ENDCHAR
STARTCHAR 0036
ENCODING 54
SWIDTH 576 0
DWIDTH 8 0
BBX 9 13 0 -2
BITMAP
3C00
6300
C100
9900
8700
8180
9C80
9C80
9C80
C180
E380
7F00
3E00
ENDCHAR
STARTCHAR 0037
ENCODING 55
SWIDTH 504 0
DWIDTH 7 0
BBX 8 13 0 -2
BITMAP
7F
81
81
F9
71
11
12
32
22
24
24
3C
38
ENDCHAR
STARTCHAR 0038
ENCODING 56
SWIDTH 504 0
DWIDTH 7 0
BBX 8 13 0 -2
BITMAP
3C
42
81
99
99
C3
81
99
99
81
C3
7E
3C
ENDCHAR
STARTCHAR 0039
ENCODING 57
SWIDTH 576 0
DWIDTH 8 0
BBX 9 13 0 -2
BITMAP
3E00
6300
C180
9C80
9C80
9C80
C080
E080
7C80
4180
6380
7F00
1E00
ENDCHAR
STARTCHAR 003A
ENCODING 58
SWIDTH 216 0
DWIDTH 3 0
BBX 4 8 0 -2
BITMAP
60
90
90
F0
90
90
F0
60
ENDCHAR
STARTCHAR 003B
ENCODING 59
SWIDTH 216 0
DWIDTH 3 0
BBX 4 10 0 -4
BITMAP
60
90
90
F0
90
90
90
90
F0
60
ENDCHAR
STARTCHAR 003C
ENCODING 60
SWIDTH 288 0
DWIDTH 4 0
BBX 5 8 0 -1
BITMAP
30
48
88
98
88
C8
78
30
ENDCHAR
STARTCHAR 003D
ENCODING 61
SWIDTH 432 0
DWIDTH 6 0
BBX 7 8 0 -1
BITMAP
7C
82
82
FE
82
82
FE
7C
ENDCHAR
STARTCHAR 003E
ENCODING 62
SWIDTH 288 0
DWIDTH 4 0
BBX 5 8 0 -1
BITMAP
60
90
98
C8
98
98
F0
60
ENDCHAR
STARTCHAR 003F
ENCODING 63
SWIDTH 576 0
DWIDTH 8 0
BBX 9 13 0 -2
BITMAP
3E00
6300
C180
9880
9C80
9480
F980
4380
3F00
4E00
4800
7800
3000
ENDCHAR
STARTCHAR 0040
ENCODING 64
SWIDTH 792 0
DWIDTH 11 0
BBX 12 13 0 -2
BITMAP
1F80
30C0
4020
CF30
9990
9690
9690
9A10
CE30
C030
70E0
3FC0
1F80
ENDCHAR
STARTCHAR 0041
ENCODING 65
SWIDTH 576 0
DWIDTH 8 0
BBX 11 16 0 -5
BITMAP
3E00
6300
C180
9C80
9C80
9C80
9880
9080
9080
9C80
9C80
F4C0
6420
0620
03E0
01C0
ENDCHAR
STARTCHAR 0042
ENCODING 66
SWIDTH 504 0
DWIDTH 7 0
BBX 8 13 0 -2
BITMAP
3C
42
81
99
99
A3
A2
99
99
A1
A3
FE
7C
ENDCHAR
STARTCHAR 0043
ENCODING 67
SWIDTH 504 0
DWIDTH 7 0
BBX 8 13 0 -2
BITMAP
0E
31
41
CF
9E
98
90
98
CE
C1
71
3F
0E
ENDCHAR
STARTCHAR 0044
ENCODING 68
SWIDTH 648 0
DWIDTH 9 0
BBX 10 13 0 -2
BITMAP
7E00
8300
8080
9CC0
9E40
9640
9240
9640
9CC0
90C0
9180
FF00
7E00
ENDCHAR
STARTCHAR 0045
ENCODING 69
SWIDTH 504 0
DWIDTH 7 0
BBX 8 13 0 -2
BITMAP
0E
31
41
CF
9E
81
81
9F
CE
C1
71
3F
0E
ENDCHAR
STARTCHAR 0046
ENCODING 70
SWIDTH 432 0
DWIDTH 6 0
BBX 7 13 0 -2
BITMAP
3C
42
82
9E
9E
82
82
82
9E
9C
90
F0
70
ENDCHAR
STARTCHAR 0047
ENCODING 71
SWIDTH 792 0
DWIDTH 11 0
BBX 12 13 0 -2
BITMAP
1F00
30C0
4020
CF20
9FE0
9410
9410
9790
CF30
C030
70E0
3FC0
1F80
ENDCHAR
STARTCHAR 0048
ENCODING 72
SWIDTH 576 0
DWIDTH 8 0
BBX 12 16 0 -5
BITMAP
6380
9280
9280
9280
9E80
8080
8080
9E80
9E80
9280
9280
F2E0
6210
0320
01F0
00E0
ENDCHAR
STARTCHAR 0049
ENCODING 73
SWIDTH 216 0
DWIDTH 3 0
BBX 4 13 0 -2
BITMAP
60
90
90
90
90
90
90
90
90
90
90
F0
60
ENDCHAR
STARTCHAR 004A
ENCODING 74
SWIDTH 504 0
DWIDTH 7 0
BBX 8 13 0 -2
BITMAP
06
09
09
09
09
09
69
99
99
81
C3
7E
3C
ENDCHAR
STARTCHAR 004B
ENCODING 75
SWIDTH 504 0
DWIDTH 7 0
BBX 10 16 0 -5
BITMAP
6000
9000
9E00
9200
9300
8200
8100
9D00
9D00
9500
9500
F5C0
6440
0640
03C0
01C0
ENDCHAR
STARTCHAR 004C
ENCODING 76
SWIDTH 360 0
DWIDTH 5 0
BBX 6 13 0 -2
BITMAP
60
90
90
90
90
90
90
90
9C
84
C4
7C
38
ENDCHAR
STARTCHAR 004D
ENCODING 77
SWIDTH 792 0
DWIDTH 11 0
BBX 14 16 0 -5
BITMAP
39C0
4620
8010
9990
9990
9990
9990
9990
9990
9990
9990
FF98
6684
00C4
007C
0038
ENDCHAR
STARTCHAR 004E
ENCODING 78
SWIDTH 504 0
DWIDTH 7 0
BBX 10 16 0 -5
BITMAP
3C00
4200
8100
9900
9900
9900
9900
9900
9900
9900
9900
F980
6840
0C40
07C0
0380
ENDCHAR
STARTCHAR 004F
ENCODING 79
SWIDTH 792 0
DWIDTH 11 0
BBX 12 13 0 -2
BITMAP
1F00
30C0
4020
CF20
9F90
9990
9090
9990
CF30
C020
70E0
3FC0
1F00
ENDCHAR
STARTCHAR 0050
ENCODING 80
SWIDTH 576 0
DWIDTH 8 0
BBX 9 13 0 -2
BITMAP
3E00
6300
C180
9C80
9C80
9C80
9880
9180
9300
9F00
9E00
F000
6000
ENDCHAR
STARTCHAR 0051
ENCODING 81
SWIDTH 792 0
DWIDTH 11 0
BBX 12 17 0 -6
BITMAP
0F00
30C0
6020
4720
8F90
9390
9290
9990
9910
C830
4860
79E0
39C0
0900
0900
0F00
0600
ENDCHAR
STARTCHAR 0052
ENCODING 82
SWIDTH 576 0
DWIDTH 8 0
BBX 9 13 0 -2
BITMAP
3E00
6300
C180
9C80
9C80
9C80
9180
9380
9700
9100
9900
FF00
6E00
ENDCHAR
STARTCHAR 0053
ENCODING 83
SWIDTH 432 0
DWIDTH 6 0
BBX 7 13 0 -2
BITMAP
0C
12
22
2E
2C
28
28
28
68
88
98
F0
E0
ENDCHAR
STARTCHAR 0054
ENCODING 84
SWIDTH 504 0
DWIDTH 7 0
BBX 8 13 0 -2
BITMAP
7E
81
81
E7
67
24
24
24
24
24
24
3C
18
ENDCHAR
STARTCHAR 0055
ENCODING 85
SWIDTH 504 0
DWIDTH 7 0
BBX 8 13 0 -2
BITMAP
66
99
99
99
99
99
99
99
99
81
C3
7E
3C
ENDCHAR
STARTCHAR 0056
ENCODING 86
SWIDTH 576 0
DWIDTH 8 0
BBX 10 13 -1 -2
BITMAP
7180
52C0
8A40
4C40
4C40
4480
2080
2080
2100
1100
1100
1E00
0E00
ENDCHAR
STARTCHAR 0057
ENCODING 87
SWIDTH 792 0
DWIDTH 11 0
BBX 12 13 0 -2
BITMAP
6660
9990
9990
9990
9990
9990
9990
9990
9990
8010
C030
7FE0
3FC0
ENDCHAR
STARTCHAR 0058
ENCODING 88
SWIDTH 504 0
DWIDTH 7 0
BBX 8 13 0 -2
BITMAP
66
99
99
99
99
81
81
99
99
99
99
FF
66
ENDCHAR
STARTCHAR 0059
ENCODING 89
SWIDTH 504 0
DWIDTH 7 0
BBX 8 13 0 -2
BITMAP
66
99
99
99
99
81
C1
B9
99
81
C3
7E
3C
ENDCHAR
STARTCHAR 005A
ENCODING 90
SWIDTH 504 0
DWIDTH 7 0
BBX 9 13 0 -2
BITMAP
7F00
4080
4100
7980
7100
3200
2200
4400
CF00
8080
8100
FF80
FF00
ENDCHAR
STARTCHAR 005B
ENCODING 91
SWIDTH 432 0
DWIDTH 6 0
BBX 6 17 0 -5
BITMAP
38
44
84
9C
9C
90
90
90
90
90
90
90
9C
84
C4
7C
3C
ENDCHAR
STARTCHAR 005C
ENCODING 92
SWIDTH 432 0
DWIDTH 6 0
BBX 8 16 -1 -4
BITMAP
70
50
88
48
48
44
24
24
22
12
12
11
09
09
0F
06
ENDCHAR
STARTCHAR 005D
ENCODING 93
SWIDTH 432 0
DWIDTH 6 0
BBX 6 17 0 -5
BITMAP
70
88
84
F4
74
14
14
14
14
14
14
14
74
84
8C
F8
70
ENDCHAR
STARTCHAR 005E
ENCODING 94
SWIDTH 432 0
DWIDTH 6 0
BBX 6 7 0 4
BITMAP
30
48
CC
84
B4
FC
78
ENDCHAR
STARTCHAR 005F
ENCODING 95
SWIDTH 576 0
DWIDTH 8 0
BBX 9 5 0 -2
BITMAP
7F00
8080
8080
FF80
7F00
ENDCHAR
STARTCHAR 0060
ENCODING 96
SWIDTH 288 0
DWIDTH 4 0
BBX 5 7 0 4
BITMAP
70
90
88
88
C8
78
70
ENDCHAR
STARTCHAR 0061
ENCODING 97
SWIDTH 576 0
DWIDTH 8 0
BBX 9 10 0 -2
BITMAP
3E00
6300
C180
9C80
9C80
9C80
C480
C480
7F80
3F00
ENDCHAR
STARTCHAR 0062
ENCODING 98
SWIDTH 576 0
DWIDTH 8 0
BBX 9 13 0 -2
BITMAP
6000
9000
9000
9E00
9100
9180
9C80
9C80
9C80
C180
E380
7F00
3E00
ENDCHAR
STARTCHAR 0063
ENCODING 99
SWIDTH 360 0
DWIDTH 5 0
BBX 6 10 0 -2
BITMAP
38
44
C4
BC
BC
BC
C4
C4
7C
38
ENDCHAR
STARTCHAR 0064
ENCODING 100
SWIDTH 576 0
DWIDTH 8 0
BBX 9 13 0 -2
BITMAP
0300
0480
0480
3C80
4480
C480
9C80
9C80
9C80
C180
E380
7F00
3E00
ENDCHAR
STARTCHAR 0065
ENCODING 101
SWIDTH 504 0
DWIDTH 7 0
BBX 8 10 0 -2
BITMAP
3C
63
C1
93
97
9E
C1
E2
7F
3E
ENDCHAR
STARTCHAR 0066
ENCODING 102
SWIDTH 504 0
DWIDTH 7 0
BBX 8 13 0 -2
BITMAP
3C
42
81
99
99
9F
81
81
9F
9E
90
F0
60
ENDCHAR
STARTCHAR 0067
ENCODING 103
SWIDTH 576 0
DWIDTH 8 0
BBX 9 18 0 -10
BITMAP
3E00
6300
C180
9C80
9C80
9C80
C480
C480
7C80
6080
C180
9E80
9C80
9C80
C180
E380
7F00
3E00
ENDCHAR
STARTCHAR 0068
ENCODING 104
SWIDTH 504 0
DWIDTH 7 0
BBX 10 16 0 -5
BITMAP
6000
9000
9000
9C00
8200
8100
9900
9900
9900
9900
9900
F980
6840
0C40
07C0
0380
ENDCHAR
STARTCHAR 0069
ENCODING 105
SWIDTH 216 0
DWIDTH 3 0
BBX 4 13 0 -2
BITMAP
E0
90
90
F0
90
90
90
90
90
90
90
F0
E0
ENDCHAR
STARTCHAR 006A
ENCODING 106
SWIDTH 216 0
DWIDTH 3 0
BBX 6 16 -2 -5
BITMAP
18
24
24
3C
24
24
24
24
24
24
24
E4
84
8C
F8
F0
ENDCHAR
STARTCHAR 006B
ENCODING 107
SWIDTH 504 0
DWIDTH 7 0
BBX 10 16 0 -5
BITMAP
6000
9000
9000
9E00
9200
9200
8200
8200
9100
9900
9900
F980
6840
0C40
07C0
0380
ENDCHAR
STARTCHAR 006C
ENCODING 108
SWIDTH 216 0
DWIDTH 3 0
BBX 4 13 0 -2
BITMAP
60
90
90
90
90
90
90
90
90
90
90
F0
60
ENDCHAR
STARTCHAR 006D
ENCODING 109
SWIDTH 792 0
DWIDTH 11 0
BBX 14 13 0 -5
BITMAP
39C0
4620
8010
9990
9990
9990
9990
9990
FF98
6684
00C4
007C
0038
ENDCHAR
STARTCHAR 006E
ENCODING 110
SWIDTH 504 0
DWIDTH 7 0
BBX 10 13 0 -5
BITMAP
3C00
4200
8100
9900
9900
9900
9900
9900
F980
6840
0C40
07C0
0380
ENDCHAR
STARTCHAR 006F
ENCODING 111
SWIDTH 576 0
DWIDTH 8 0
BBX 9 10 0 -2
BITMAP
3E00
6300
C180
9C80
9C80
9C80
C180
E380
7F00
3E00
ENDCHAR
STARTCHAR 0070
ENCODING 112
SWIDTH 576 0
DWIDTH 8 0
BBX 9 13 0 -5
BITMAP
3E00
6300
C180
9C80
9C80
9C80
9180
9180
9F00
9E00
9000
F000
6000
ENDCHAR
STARTCHAR 0071
ENCODING 113
SWIDTH 576 0
DWIDTH 8 0
BBX 9 13 0 -5
BITMAP
3E00
6300
C180
9C80
9C80
9C80
C480
C480
7C80
3C80
0480
0780
0300
ENDCHAR
STARTCHAR 0072
ENCODING 114
SWIDTH 360 0
DWIDTH 5 0
BBX 6 10 0 -2
BITMAP
38
44
84
9C
98
90
90
90
F0
60
ENDCHAR
STARTCHAR 0073
ENCODING 115
SWIDTH 432 0
DWIDTH 6 0
BBX 7 10 0 -2
BITMAP
0C
12
22
2E
2E
68
88
98
F8
70
ENDCHAR
STARTCHAR 0074
ENCODING 116
SWIDTH 504 0
DWIDTH 7 0
BBX 8 11 0 -2
BITMAP
60
9E
81
81
9F
99
99
81
C3
7E
3C
ENDCHAR
STARTCHAR 0075
ENCODING 117
SWIDTH 504 0
DWIDTH 7 0
BBX 8 10 0 -2
BITMAP
66
99
99
99
99
99
81
C3
7E
3C
ENDCHAR
STARTCHAR 0076
ENCODING 118
SWIDTH 504 0
DWIDTH 7 0
BBX 9 10 -1 -2
BITMAP
7300
4C80
8D00
4980
4100
2100
2200
2200
1E00
1C00
ENDCHAR
STARTCHAR 0077
ENCODING 119
SWIDTH 792 0
DWIDTH 11 0
BBX 12 10 0 -2
BITMAP
6660
9990
9990
9990
9990
9990
8010
C030
7FE0
3FC0
ENDCHAR
STARTCHAR 0078
ENCODING 120
SWIDTH 504 0
DWIDTH 7 0
BBX 8 10 0 -2
BITMAP
66
99
99
99
83
81
99
99
FF
76
ENDCHAR
STARTCHAR 0079
ENCODING 121
SWIDTH 504 0
DWIDTH 7 0
BBX 8 13 0 -5
BITMAP
66
99
99
99
99
99
81
C1
79
21
23
3E
1C
ENDCHAR
STARTCHAR 007A
ENCODING 122
SWIDTH 504 0
DWIDTH 7 0
BBX 8 10 0 -2
BITMAP
7E
41
41
73
66
CE
81
82
FF
FE
ENDCHAR
STARTCHAR 007B
ENCODING 123
SWIDTH 360 0
DWIDTH 5 0
BBX 6 17 0 -5
BITMAP
38
44
84
9C
9C
90
90
90
90
90
90
90
9C
84
C4
7C
3C
ENDCHAR
STARTCHAR 007C
ENCODING 124
SWIDTH 216 0
DWIDTH 3 0
BBX 4 16 0 -4
BITMAP
60
90
90
90
90
90
90
90
90
90
90
90
90
90
F0
60
ENDCHAR
STARTCHAR 007D
ENCODING 125
SWIDTH 360 0
DWIDTH 5 0
BBX 6 17 0 -5
BITMAP
70
88
84
F4
74
14
14
14
14
14
14
14
74
84
8C
F8
70
ENDCHAR
STARTCHAR 007E
ENCODING 126
SWIDTH 432 0
DWIDTH 6 0
BBX 7 6 0 5
BITMAP
7C
C2
82
86
FE
7C
ENDCHAR
STARTCHAR 00A1
ENCODING 161
SWIDTH 216 0
DWIDTH 3 0
BBX 4 13 0 -2
BITMAP
E0
B0
B0
F0
90
90
90
90
90
90
90
F0
E0
ENDCHAR
STARTCHAR 00A2
ENCODING 162
SWIDTH 360 0
DWIDTH 5 0
BBX 6 13 0 -2
BITMAP
30
28
54
84
84
BC
B8
B8
C4
7C
6C
38
30
ENDCHAR
STARTCHAR 00A3
ENCODING 163
SWIDTH 576 0
DWIDTH 8 0
BBX 9 13 0 -2
BITMAP
3800
4400
8400
9C00
8200
8200
8300
9E80
9E80
8080
8180
FF00
FE00
ENDCHAR
STARTCHAR 00A4
ENCODING 164
SWIDTH 576 0
DWIDTH 8 0
BBX 9 13 0 -2
BITMAP
0700
1880
2100
E780
8100
8100
8F00
8100
E700
E080
3900
1F80
0700
ENDCHAR
STARTCHAR 00A5
ENCODING 165
SWIDTH 576 0
DWIDTH 8 0
BBX 9 14 0 -2
BITMAP
EE00
9900
9900
9900
9900
8100
8100
E380
8080
8080
8080
E380
FF00
1C00
ENDCHAR
STARTCHAR 00A7
ENCODING 167
SWIDTH 648 0
DWIDTH 9 0
BBX 10 13 0 -2
BITMAP
0E00
1100
2180
2E40
2840
29C0
2980
C900
9900
A300
E300
FE00
3C00
ENDCHAR
STARTCHAR 00A8
ENCODING 168
SWIDTH 432 0
DWIDTH 6 0
BBX 7 6 0 10
BITMAP
6C
92
92
92
FE
7C
ENDCHAR
STARTCHAR 00A9
ENCODING 169
SWIDTH 792 0
DWIDTH 11 0
BBX 12 13 0 -2
BITMAP
1F00
30C0
4060
8F20
9B10
9F90
9F90
9F10
8F30
C060
70E0
3FC0
1F00
ENDCHAR
STARTCHAR 00AA
ENCODING 170
SWIDTH 1008 0
DWIDTH 14 0
BBX 16 14 0 0
BITMAP
07E0
0FF0
0E78
1C38
3C1C
FC0C
380D
7F6F
700F
700E
799C
3DB8
0250
0180
ENDCHAR
STARTCHAR 00AB
ENCODING 171
SWIDTH 504 0
DWIDTH 7 0
BBX 8 8 0 -1
BITMAP
36
49
91
93
91
C9
7F
36
ENDCHAR
STARTCHAR 00AC
ENCODING 172
SWIDTH 1296 0
DWIDTH 18 0
BBX 19 14 0 0
BITMAP
01E000
03F800
07FE00
0F0E00
0E0700
3E0780
7F2380
3DB380
F9D3E0
78A3C0
FC43C0
7CA780
035E00
00E000
ENDCHAR
STARTCHAR 00AE
ENCODING 174
SWIDTH 792 0
DWIDTH 11 0
BBX 12 13 0 -2
BITMAP
1F00
30C0
4060
8F20
9110
9690
9790
9510
8F30
C060
70E0
3FC0
1F00
ENDCHAR
STARTCHAR 00AF
ENCODING 175
SWIDTH 504 0
DWIDTH 7 0
BBX 7 5 1 8
BITMAP
FC
82
84
FE
FC
ENDCHAR
STARTCHAR 00B0
ENCODING 176
SWIDTH 216 0
DWIDTH 3 0
BBX 5 6 0 5
BITMAP
70
88
A8
88
F8
70
ENDCHAR
STARTCHAR 00B1
ENCODING 177
SWIDTH 432 0
DWIDTH 6 0
BBX 7 10 0 -2
BITMAP
38
28
C6
82
EE
FE
82
82
FE
FC
ENDCHAR
STARTCHAR 00B4
ENCODING 180
SWIDTH 288 0
DWIDTH 4 0
BBX 5 7 0 10
BITMAP
70
C8
88
98
90
F0
E0
ENDCHAR
STARTCHAR 00B5
ENCODING 181
SWIDTH 648 0
DWIDTH 9 0
BBX 10 13 0 -5
BITMAP
EE00
9900
9900
9900
9900
9980
8040
8040
9FC0
9F80
9000
F000
E000
ENDCHAR
STARTCHAR 00B6
ENCODING 182
SWIDTH 720 0
DWIDTH 10 0
BBX 11 13 0 -2
BITMAP
3FC0
4020
8020
9120
9120
9120
8120
C120
7120
3120
1120
1FE0
0FC0
ENDCHAR
STARTCHAR 00B7
ENCODING 183
SWIDTH 216 0
DWIDTH 3 0
BBX 4 5 0 -2
BITMAP
60
90
90
F0
60
ENDCHAR
STARTCHAR 00B8
ENCODING 184
SWIDTH 360 0
DWIDTH 5 0
BBX 5 5 0 -5
BITMAP
08
08
08
F0
E0
ENDCHAR
STARTCHAR 00BA
ENCODING 186
SWIDTH 1008 0
DWIDTH 14 0
BBX 16 14 0 0
BITMAP
07E0
0FF0
0E78
1C38
3C1C
FC0C
380D
7F6F
700F
700E
799C
3DB8
0250
0180
ENDCHAR
STARTCHAR 00BB
ENCODING 187
SWIDTH 504 0
DWIDTH 7 0
BBX 8 8 0 -1
BITMAP
EC
B6
93
C9
93
B7
FE
FC
ENDCHAR
STARTCHAR 00BF
ENCODING 191
SWIDTH 576 0
DWIDTH 8 0
BBX 9 13 0 -2
BITMAP
0C00
1200
1200
3E00
4200
8300
9F80
9C80
9880
8180
C300
7F00
3C00
ENDCHAR
STARTCHAR 00C0
ENCODING 192
SWIDTH 576 0
DWIDTH 8 0
BBX 11 22 0 -5
BITMAP
1C00
2400
2200
2200
3200
1E00
3E00
6300
C180
9C80
9C80
9C80
9880
9080
9080
9C80
9C80
F4C0
6420
0620
03E0
01C0
ENDCHAR
STARTCHAR 00C1
ENCODING 193
SWIDTH 576 0
DWIDTH 8 0
BBX 11 22 0 -5
BITMAP
1C00
1200
2200
2200
2600
3C00
3E00
6300
C180
9C80
9C80
9C80
9880
9080
9080
9C80
9C80
F4C0
6420
0620
03E0
01C0
ENDCHAR
STARTCHAR 00C2
ENCODING 194
SWIDTH 576 0
DWIDTH 8 0
BBX 11 21 0 -5
BITMAP
1800
2400
4200
4200
7E00
3E00
6300
C180
9C80
9C80
9C80
9880
9080
9080
9C80
9C80
F4C0
6420
0620
03E0
01C0
ENDCHAR
STARTCHAR 00C3
ENCODING 195
SWIDTH 504 0
DWIDTH 7 0
BBX 11 21 0 -5
BITMAP
3E00
6100
4100
4300
7F00
3E00
6300
C180
9C80
9C80
9C80
9880
9080
9080
9C80
9C80
F4C0
6420
0620
03E0
01C0
ENDCHAR
STARTCHAR 00C4
ENCODING 196
SWIDTH 504 0
DWIDTH 7 0
BBX 11 22 0 -5
BITMAP
3600
4900
4900
4900
7F00
3E00
3E00
6300
C180
9C80
9C80
9C80
9880
9080
9080
9C80
9C80
F4C0
6420
0620
03E0
01C0
ENDCHAR
STARTCHAR 00C5
ENCODING 197
SWIDTH 504 0
DWIDTH 7 0
BBX 11 20 0 -5
BITMAP
1C00
2200
2A00
2200
3E00
7F00
C180
9C80
9C80
9C80
9880
9080
9080
9C80
9C80
F4C0
6420
0620
03E0
01C0
ENDCHAR
STARTCHAR 00C6
ENCODING 198
SWIDTH 864 0
DWIDTH 12 0
BBX 13 13 0 -2
BITMAP
3C70
6388
8108
9878
9CF0
9C08
9008
90F8
9470
9C08
9C88
F7F8
E7F0
ENDCHAR
STARTCHAR 00C7
ENCODING 199
SWIDTH 432 0
DWIDTH 6 0
BBX 8 16 0 -5
BITMAP
1E
31
41
8F
9E
98
90
90
CE
F1
7F
67
26
24
3C
18
ENDCHAR
STARTCHAR 00C8
ENCODING 200
SWIDTH 432 0
DWIDTH 6 0
BBX 8 19 0 -2
BITMAP
1C
24
22
22
32
1E
1E
31
41
CF
9E
81
81
9F
CE
C1
71
3F
0E
ENDCHAR
STARTCHAR 00C9
ENCODING 201
SWIDTH 432 0
DWIDTH 6 0
BBX 8 19 0 -2
BITMAP
38
24
44
44
4C
78
3E
31
41
CF
9E
81
81
9F
CE
C1
71
3F
0E
ENDCHAR
STARTCHAR 00CA
ENCODING 202
SWIDTH 504 0
DWIDTH 7 0
BBX 8 19 0 -2
BITMAP
18
24
42
42
7E
3C
0E
31
41
CF
9E
81
81
9F
CE
C1
71
3F
0E
ENDCHAR
STARTCHAR 00CB
ENCODING 203
SWIDTH 432 0
DWIDTH 6 0
BBX 8 19 0 -2
BITMAP
36
49
49
49
7F
3E
0E
31
41
CF
9E
81
81
9F
CE
C1
71
3F
0E
ENDCHAR
STARTCHAR 00CC
ENCODING 204
SWIDTH 144 0
DWIDTH 2 0
BBX 5 19 -1 -2
BITMAP
70
90
88
88
C8
78
70
48
48
48
48
48
48
48
48
48
48
78
30
ENDCHAR
STARTCHAR 00CD
ENCODING 205
SWIDTH 144 0
DWIDTH 2 0
BBX 5 19 0 -2
BITMAP
70
48
88
88
98
F0
70
90
90
90
90
90
90
90
90
90
90
F0
60
ENDCHAR
STARTCHAR 00CE
ENCODING 206
SWIDTH 144 0
DWIDTH 2 0
BBX 6 18 -1 -2
BITMAP
30
48
84
84
FC
78
48
48
48
48
48
48
48
48
48
48
78
30
ENDCHAR
STARTCHAR 00CF
ENCODING 207
SWIDTH 144 0
DWIDTH 2 0
BBX 7 19 -2 -2
BITMAP
6C
92
92
92
FE
7C
18
24
24
24
24
24
24
24
24
24
24
3C
18
ENDCHAR
STARTCHAR 00D0
ENCODING 208
SWIDTH 1008 0
DWIDTH 14 0
BBX 16 14 0 0
BITMAP
07E0
0FF0
0E78
1C38
3C1C
FC0C
380D
7F6F
700F
700E
799C
3DB8
0250
0180
ENDCHAR
STARTCHAR 00D1
ENCODING 209
SWIDTH 432 0
DWIDTH 6 0
BBX 10 19 0 -5
BITMAP
3E00
6100
4100
7F00
7F00
BF00
9900
9900
9900
9900
9900
9900
9900
9900
F980
6840
0C40
07C0
0380
ENDCHAR
STARTCHAR 00D2
ENCODING 210
SWIDTH 720 0
DWIDTH 10 0
BBX 12 20 0 -2
BITMAP
0E00
1200
1100
1100
1900
0F00
0E00
1F80
30C0
4020
CF30
9F90
9990
9090
9990
CF30
C030
70E0
3FC0
1F00
ENDCHAR
STARTCHAR 00D3
ENCODING 211
SWIDTH 720 0
DWIDTH 10 0
BBX 12 19 0 -2
BITMAP
0700
0480
0880
0880
0980
0F00
1F80
30C0
4020
CF30
9F90
9990
9090
9990
CF30
C030
70E0
3FC0
1F00
ENDCHAR
STARTCHAR 00D4
ENCODING 212
SWIDTH 720 0
DWIDTH 10 0
BBX 12 19 0 -2
BITMAP
0600
0900
1080
1080
1F80
0F00
1F80
30C0
4020
CF30
9F90
9990
9090
9990
CF30
C030
70E0
3FC0
1F00
ENDCHAR
STARTCHAR 00D5
ENCODING 213
SWIDTH 720 0
DWIDTH 10 0
BBX 12 18 0 -2
BITMAP
0F80
1840
1040
10C0
1FC0
1F80
30C0
4020
CF30
9F90
9990
9090
9990
CF30
C030
70E0
3FC0
1F00
ENDCHAR
STARTCHAR 00D6
ENCODING 214
SWIDTH 720 0
DWIDTH 10 0
BBX 12 19 0 -2
BITMAP
0D80
1240
1240
1240
1FC0
0F80
1F80
30C0
4020
CF30
9F90
9990
9090
9990
CF30
C030
70E0
3FC0
1F00
ENDCHAR
STARTCHAR 00D8
ENCODING 216
SWIDTH 792 0
DWIDTH 11 0
BBX 12 13 0 -2
BITMAP
1F80
30C0
4020
CF30
9F90
9990
9090
9990
CF30
C030
70E0
3FC0
1F00
ENDCHAR
STARTCHAR 00D9
ENCODING 217
SWIDTH 432 0
DWIDTH 6 0
BBX 8 19 0 -2
BITMAP
1C
24
22
22
32
1E
7E
99
99
99
99
99
99
99
99
81
C3
7E
3C
ENDCHAR
STARTCHAR 00DA
ENCODING 218
SWIDTH 432 0
DWIDTH 6 0
BBX 8 19 0 -2
BITMAP
1C
12
22
22
26
3C
7E
99
99
99
99
99
99
99
99
81
C3
7E
3C
ENDCHAR
STARTCHAR 00DB
ENCODING 219
SWIDTH 432 0
DWIDTH 6 0
BBX 8 18 0 -2
BITMAP
18
24
42
42
7E
7E
99
99
99
99
99
99
99
99
81
C3
7E
3C
ENDCHAR
STARTCHAR 00DC
ENCODING 220
SWIDTH 432 0
DWIDTH 6 0
BBX 8 19 0 -2
BITMAP
36
49
49
49
7F
3E
66
99
99
99
99
99
99
99
99
81
C3
7E
3C
ENDCHAR
STARTCHAR 00DD
ENCODING 221
SWIDTH 432 0
DWIDTH 6 0
BBX 6 14 1 0
BITMAP
30
30
30
20
84
84
84
84
FC
7C
84
8C
F8
70
ENDCHAR
STARTCHAR 00DE
ENCODING 222
SWIDTH 1008 0
DWIDTH 14 0
BBX 16 14 0 0
BITMAP
07E0
0FF0
0E78
1C38
3C1C
FC0C
380D
7F6F
700F
700E
799C
3DB8
0250
0180
ENDCHAR
STARTCHAR 00DF
ENCODING 223
SWIDTH 504 0
DWIDTH 7 0
BBX 8 16 0 -5
BITMAP
3C
42
83
99
99
A3
A2
99
99
A3
A3
9E
9C
90
F0
E0
ENDCHAR
STARTCHAR 00E0
ENCODING 224
SWIDTH 504 0
DWIDTH 7 0
BBX 9 17 0 -2
BITMAP
1C00
2400
2200
2200
3200
1E00
1C00
3E00
6300
C180
9C80
9C80
9C80
C480
C480
7F80
3F00
ENDCHAR
STARTCHAR 00E1
ENCODING 225
SWIDTH 504 0
DWIDTH 7 0
BBX 9 18 0 -2
BITMAP
1C00
1200
2200
2200
2600
3C00
1C00
0000
3E00
6300
C180
9C80
9C80
9C80
C480
C480
7F80
3F00
ENDCHAR
STARTCHAR 00E2
ENCODING 226
SWIDTH 504 0
DWIDTH 7 0
BBX 9 15 0 -2
BITMAP
1800
2400
4200
4200
7E00
3E00
6300
C180
9C80
9C80
9C80
C480
C480
7F80
3F00
ENDCHAR
STARTCHAR 00E3
ENCODING 227
SWIDTH 504 0
DWIDTH 7 0
BBX 9 15 0 -2
BITMAP
3E00
6100
4100
4300
7F00
3E00
6300
C180
9C80
9C80
9C80
C480
C480
7F80
3F00
ENDCHAR
STARTCHAR 00E4
ENCODING 228
SWIDTH 504 0
DWIDTH 7 0
BBX 9 16 0 -2
BITMAP
3600
4900
4900
4900
7F00
3E00
3E00
6300
C180
9C80
9C80
9C80
C480
C480
7F80
3F00
ENDCHAR
STARTCHAR 00E5
ENCODING 229
SWIDTH 504 0
DWIDTH 7 0
BBX 9 16 0 -2
BITMAP
1C00
2200
2A00
2200
3E00
1C00
3E00
6300
C180
9C80
9C80
9C80
C480
C480
7F80
3F00
ENDCHAR
STARTCHAR 00E6
ENCODING 230
SWIDTH 864 0
DWIDTH 12 0
BBX 13 10 0 -2
BITMAP
3DE0
4218
8008
9898
9CB8
9CF0
8408
C710
7FF8
3DF0
ENDCHAR
STARTCHAR 00E7
ENCODING 231
SWIDTH 360 0
DWIDTH 5 0
BBX 6 13 0 -5
BITMAP
38
44
84
BC
B8
B8
C4
FC
6C
24
2C
3C
18
ENDCHAR
STARTCHAR 00E8
ENCODING 232
SWIDTH 504 0
DWIDTH 7 0
BBX 8 16 0 -2
BITMAP
1C
24
22
22
32
1E
3C
63
C1
93
97
9E
C1
E2
7F
3E
ENDCHAR
STARTCHAR 00E9
ENCODING 233
SWIDTH 504 0
DWIDTH 7 0
BBX 8 16 0 -2
BITMAP
1C
12
22
22
26
3C
3C
63
C1
93
97
9E
C1
E2
7F
3E
ENDCHAR
STARTCHAR 00EA
ENCODING 234
SWIDTH 504 0
DWIDTH 7 0
BBX 8 16 0 -2
BITMAP
18
24
42
42
7E
3C
3C
63
C1
93
97
9E
C1
E2
7F
3E
ENDCHAR
STARTCHAR 00EB
ENCODING 235
SWIDTH 504 0
DWIDTH 7 0
BBX 8 16 0 -2
BITMAP
36
49
49
49
7F
3E
3C
63
C1
93
97
9E
C1
E2
7F
3E
ENDCHAR
STARTCHAR 00EC
ENCODING 236
SWIDTH 144 0
DWIDTH 2 0
BBX 5 17 -1 -2
BITMAP
70
90
88
88
C8
78
70
30
48
48
48
48
48
48
48
78
30
ENDCHAR
STARTCHAR 00ED
ENCODING 237
SWIDTH 144 0
DWIDTH 2 0
BBX 5 16 0 -2
BITMAP
70
48
88
88
98
F0
70
90
90
90
90
90
90
90
F0
60
ENDCHAR
STARTCHAR 00EE
ENCODING 238
SWIDTH 144 0
DWIDTH 2 0
BBX 6 16 -1 -2
BITMAP
30
48
84
84
FC
78
30
48
48
48
48
48
48
48
78
30
ENDCHAR
STARTCHAR 00EF
ENCODING 239
SWIDTH 144 0
DWIDTH 2 0
BBX 7 16 -2 -2
BITMAP
6C
92
92
92
FE
7C
18
24
24
24
24
24
24
24
3C
18
ENDCHAR
STARTCHAR 00F0
ENCODING 240
SWIDTH 1008 0
DWIDTH 14 0
BBX 16 14 0 0
BITMAP
07E0
0FF0
0E78
1C38
3C1C
FC0C
380D
7F6F
700F
700E
799C
3DB8
0250
0180
ENDCHAR
STARTCHAR 00F1
ENCODING 241
SWIDTH 432 0
DWIDTH 6 0
BBX 10 18 0 -5
BITMAP
3E00
6100
4100
4300
7F00
3E00
4200
8100
9900
9900
9900
9900
9900
F980
6840
0C40
07C0
0380
ENDCHAR
STARTCHAR 00F2
ENCODING 242
SWIDTH 504 0
DWIDTH 7 0
BBX 9 17 0 -2
BITMAP
1C00
2400
2200
2200
3200
1E00
1C00
3E00
6300
C180
9C80
9C80
9C80
C180
E380
7F00
3E00
ENDCHAR
STARTCHAR 00F3
ENCODING 243
SWIDTH 504 0
DWIDTH 7 0
BBX 9 16 0 -2
BITMAP
1C00
1200
2200
2200
2600
3C00
3E00
6300
C180
9C80
9C80
9C80
C180
E380
7F00
3E00
ENDCHAR
STARTCHAR 00F4
ENCODING 244
SWIDTH 504 0
DWIDTH 7 0
BBX 9 16 0 -2
BITMAP
1800
2400
4200
4200
7E00
3C00
3E00
6300
C180
9C80
9C80
9C80
C180
E380
7F00
3E00
ENDCHAR
STARTCHAR 00F5
ENCODING 245
SWIDTH 504 0
DWIDTH 7 0
BBX 9 15 0 -2
BITMAP
3E00
6100
4100
4300
7F00
3E00
6300
C180
9C80
9C80
9C80
C180
E380
7F00
3E00
ENDCHAR
STARTCHAR 00F6
ENCODING 246
SWIDTH 504 0
DWIDTH 7 0
BBX 9 16 0 -2
BITMAP
3600
4900
4900
4900
7F00
3E00
3E00
6300
C180
9C80
9C80
9C80
C180
E380
7F00
3E00
ENDCHAR
STARTCHAR 00F7
ENCODING 247
SWIDTH 1008 0
DWIDTH 14 0
BBX 16 14 0 0
BITMAP
07E0
0FF0
0E78
1C38
3C1C
FC0C
380D
7F6F
700F
700E
799C
3DB8
0250
0180
ENDCHAR
STARTCHAR 00F8
ENCODING 248
SWIDTH 720 0
DWIDTH 10 0
BBX 12 13 0 -2
BITMAP
1F80
30C0
4020
CF30
9F90
9990
9090
9990
CF30
C030
70E0
3FC0
1F00
ENDCHAR
STARTCHAR 00F9
ENCODING 249
SWIDTH 432 0
DWIDTH 6 0
BBX 8 16 0 -2
BITMAP
38
48
44
44
64
3C
7E
99
99
99
99
99
81
C3
7E
3C
ENDCHAR
STARTCHAR 00FA
ENCODING 250
SWIDTH 432 0
DWIDTH 6 0
BBX 8 16 0 -2
BITMAP
1C
12
22
22
26
3C
7E
99
99
99
99
99
81
C3
7E
3C
ENDCHAR
STARTCHAR 00FB
ENCODING 251
SWIDTH 432 0
DWIDTH 6 0
BBX 8 16 0 -2
BITMAP
18
24
42
42
7E
3C
66
99
99
99
99
99
81
C3
7E
3C
ENDCHAR
STARTCHAR 00FC
ENCODING 252
SWIDTH 432 0
DWIDTH 6 0
BBX 8 16 0 -2
BITMAP
36
49
49
49
7F
3E
66
99
99
99
99
99
81
C3
7E
3C
ENDCHAR
STARTCHAR 00FE
ENCODING 254
SWIDTH 1008 0
DWIDTH 14 0
BBX 16 14 0 0
BITMAP
07E0
0FF0
0E78
1C38
3C1C
FC0C
380D
7F6F
700F
700E
799C
3DB8
0250
0180
ENDCHAR
STARTCHAR 00FF
ENCODING 255
SWIDTH 504 0
DWIDTH 7 0
BBX 8 19 0 -5
BITMAP
36
49
49
49
7F
3E
66
99
99
99
99
99
81
C1
79
21
23
3E
1C
ENDCHAR
STARTCHAR 0131
ENCODING 305
SWIDTH 144 0
DWIDTH 2 0
BBX 4 10 0 -2
BITMAP
E0
90
90
90
90
90
90
90
F0
E0
ENDCHAR
STARTCHAR 0141
ENCODING 321
SWIDTH 1008 0
DWIDTH 14 0
BBX 16 14 0 0
BITMAP
07E0
0FF0
0E78
1C38
3C1C
FC0C
380D
7F6F
700F
700E
799C
3DB8
0250
0180
ENDCHAR
STARTCHAR 0142
ENCODING 322
SWIDTH 1008 0
DWIDTH 14 0
BBX 16 14 0 0
BITMAP
07E0
0FF0
0E78
1C38
3C1C
FC0C
380D
7F6F
700F
700E
799C
3DB8
0250
0180
ENDCHAR
STARTCHAR 0152
ENCODING 338
SWIDTH 1008 0
DWIDTH 14 0
BBX 16 13 0 -2
BITMAP
1F0E
30F1
4041
8F0F
9F1E
9181
9081
911F
8F0E
C001
7061
3FFF
1F9E
ENDCHAR
STARTCHAR 0153
ENCODING 339
SWIDTH 864 0
DWIDTH 12 0
BBX 13 10 0 -2
BITMAP
3DE0
4218
8008
9898
9CB8
98F0
8008
E010
7FF8
3FF0
ENDCHAR
STARTCHAR 0160
ENCODING 352
SWIDTH 432 0
DWIDTH 6 0
BBX 7 17 0 -2
BITMAP
78
84
84
CC
7C
32
22
2E
2C
28
28
28
68
88
98
F0
E0
ENDCHAR
STARTCHAR 0161
ENCODING 353
SWIDTH 432 0
DWIDTH 6 0
BBX 7 14 0 -2
BITMAP
78
84
84
CC
7C
32
22
2E
2E
68
88
98
F8
70
ENDCHAR
STARTCHAR 0178
ENCODING 376
SWIDTH 504 0
DWIDTH 7 0
BBX 8 19 0 -2
BITMAP
36
49
49
49
7F
3E
66
99
99
99
99
81
C1
B9
99
81
C3
7E
3C
ENDCHAR
STARTCHAR 017D
ENCODING 381
SWIDTH 432 0
DWIDTH 6 0
BBX 9 17 0 -2
BITMAP
3C00
4200
4200
6600
3F80
5880
4080
7880
7100
1200
2200
6400
4F00
8080
8100
FF80
7F00
ENDCHAR
STARTCHAR 017E
ENCODING 382
SWIDTH 432 0
DWIDTH 6 0
BBX 8 14 0 -2
BITMAP
78
84
84
CC
7F
71
41
73
66
4E
81
81
FF
FE
ENDCHAR
STARTCHAR 0192
ENCODING 402
SWIDTH 432 0
DWIDTH 6 0
BBX 8 16 -1 -5
BITMAP
0E
11
21
27
26
24
66
42
46
66
24
E4
8C
8C
F8
F0
ENDCHAR
STARTCHAR 02C6
ENCODING 710
SWIDTH 360 0
DWIDTH 5 0
BBX 6 6 0 8
BITMAP
30
48
84
84
FC
F8
ENDCHAR
STARTCHAR 02C7
ENCODING 711
SWIDTH 360 0
DWIDTH 5 0
BBX 6 6 0 8
BITMAP
F8
A4
84
CC
78
30
ENDCHAR
STARTCHAR 02C9
ENCODING 713
SWIDTH 504 0
DWIDTH 7 0
BBX 7 5 1 8
BITMAP
FC
82
84
FE
FC
ENDCHAR
STARTCHAR 02D8
ENCODING 728
SWIDTH 432 0
DWIDTH 6 0
BBX 6 7 0 7
BITMAP
6C
DC
94
C4
C4
7C
38
ENDCHAR
STARTCHAR 02D9
ENCODING 729
SWIDTH 432 0
DWIDTH 6 0
BBX 4 6 1 7
BITMAP
70
D0
90
D0
F0
70
ENDCHAR
STARTCHAR 02DA
ENCODING 730
SWIDTH 216 0
DWIDTH 3 0
BBX 5 6 0 8
BITMAP
70
98
A8
98
F8
70
ENDCHAR
STARTCHAR 02DB
ENCODING 731
SWIDTH 432 0
DWIDTH 6 0
BBX 5 5 2 -5
BITMAP
80
80
C0
78
38
ENDCHAR
STARTCHAR 02DC
ENCODING 732
SWIDTH 360 0
DWIDTH 5 0
BBX 7 6 0 7
BITMAP
7C
82
82
A6
FE
FC
ENDCHAR
STARTCHAR 02DD
ENCODING 733
SWIDTH 864 0
DWIDTH 12 0
BBX 12 11 1 0
BITMAP
FFF0
CD50
D7B0
BFF0
FBF0
9D90
FB50
B950
FFF0
A970
FFF0
ENDCHAR
STARTCHAR 0394
ENCODING 916
SWIDTH 1008 0
DWIDTH 14 0
BBX 16 14 0 0
BITMAP
07E0
0FF0
0E78
1C38
3C1C
FC0C
380D
7F6F
700F
700E
799C
3DB8
0250
0180
ENDCHAR
STARTCHAR 03A9
ENCODING 937
SWIDTH 1008 0
DWIDTH 14 0
BBX 16 14 0 0
BITMAP
07E0
0FF0
0E78
1C38
3C1C
FC0C
380D
7F6F
700F
700E
799C
3DB8
0250
0180
ENDCHAR
STARTCHAR 03BC
ENCODING 956
SWIDTH 648 0
DWIDTH 9 0
BBX 10 13 0 -5
BITMAP
EE00
9900
9900
9900
9900
9980
8040
8040
9FC0
9F80
9000
F000
E000
ENDCHAR
STARTCHAR 03C0
ENCODING 960
SWIDTH 504 0
DWIDTH 7 0
BBX 8 10 0 -2
BITMAP
FE
81
81
C9
C9
49
49
49
7F
7E
ENDCHAR
STARTCHAR 2010
ENCODING 8208
SWIDTH 216 0
DWIDTH 3 0
BBX 4 5 0 1
BITMAP
60
90
90
F0
60
ENDCHAR
STARTCHAR 2013
ENCODING 8211
SWIDTH 360 0
DWIDTH 5 0
BBX 7 5 0 0
BITMAP
FC
82
82
FE
FC
ENDCHAR
STARTCHAR 2014
ENCODING 8212
SWIDTH 576 0
DWIDTH 8 0
BBX 10 5 0 0
BITMAP
FF80
8040
8080
FFC0
FF80
ENDCHAR
STARTCHAR 2018
ENCODING 8216
SWIDTH 216 0
DWIDTH 3 0
BBX 4 7 0 4
BITMAP
60
90
90
90
90
F0
60
ENDCHAR
STARTCHAR 2019
ENCODING 8217
SWIDTH 216 0
DWIDTH 3 0
BBX 4 7 0 4
BITMAP
60
90
90
90
90
F0
60
ENDCHAR
STARTCHAR 201A
ENCODING 8218
SWIDTH 216 0
DWIDTH 3 0
BBX 4 7 0 -4
BITMAP
60
90
90
90
90
F0
60
ENDCHAR
STARTCHAR 201C
ENCODING 8220
SWIDTH 432 0
DWIDTH 6 0
BBX 7 7 0 4
BITMAP
6C
92
92
92
92
FE
7C
ENDCHAR
STARTCHAR 201D
ENCODING 8221
SWIDTH 432 0
DWIDTH 6 0
BBX 7 7 0 4
BITMAP
6C
92
92
92
92
FE
7C
ENDCHAR
STARTCHAR 201E
ENCODING 8222
SWIDTH 504 0
DWIDTH 7 0
BBX 8 7 0 -4
BITMAP
66
99
99
99
99
FF
66
ENDCHAR
STARTCHAR 2020
ENCODING 8224
SWIDTH 1080 0
DWIDTH 15 0
BBX 16 14 1 0
BITMAP
07C0
0FF0
1EF0
1C38
3838
F81C
3C58
F2CF
F00E
F01E
711C
7938
04F0
0300
ENDCHAR
STARTCHAR 2021
ENCODING 8225
SWIDTH 1008 0
DWIDTH 14 0
BBX 16 14 0 0
BITMAP
07E0
0FF0
0E78
1C38
3C1C
FC0C
380D
7F6F
700F
700E
799C
3DB8
0250
0180
ENDCHAR
STARTCHAR 2022
ENCODING 8226
SWIDTH 360 0
DWIDTH 5 0
BBX 6 6 0 1
BITMAP
78
8C
84
8C
FC
78
ENDCHAR
STARTCHAR 2026
ENCODING 8230
SWIDTH 720 0
DWIDTH 10 0
BBX 11 5 0 -2
BITMAP
EFC0
B660
B640
FFE0
FFC0
ENDCHAR
STARTCHAR 2030
ENCODING 8240
SWIDTH 792 0
DWIDTH 11 0
BBX 12 16 0 -4
BITMAP
0300
7480
8C80
AC80
A880
8900
F900
7180
16C0
14C0
2420
2650
2650
2730
39F0
38E0
ENDCHAR
STARTCHAR 2039
ENCODING 8249
SWIDTH 288 0
DWIDTH 4 0
BBX 5 8 0 -1
BITMAP
30
48
88
98
88
C8
78
30
ENDCHAR
STARTCHAR 203A
ENCODING 8250
SWIDTH 288 0
DWIDTH 4 0
BBX 5 8 0 -1
BITMAP
60
90
98
C8
98
98
F0
60
ENDCHAR
STARTCHAR 2044
ENCODING 8260
SWIDTH 432 0
DWIDTH 6 0
BBX 7 16 0 -4
BITMAP
0C
0A
0A
12
12
32
24
24
44
48
48
88
90
90
F0
60
ENDCHAR
STARTCHAR 2122
ENCODING 8482
SWIDTH 648 0
DWIDTH 9 0
BBX 10 8 0 3
BITMAP
C000
CF80
B0C0
A540
A540
8540
FFC0
7EC0
ENDCHAR
STARTCHAR 2126
ENCODING 8486
SWIDTH 1008 0
DWIDTH 14 0
BBX 16 14 0 0
BITMAP
07E0
0FF0
0E78
1C38
3C1C
FC0C
380D
7F6F
700F
700E
799C
3DB8
0250
0180
ENDCHAR
STARTCHAR 2202
ENCODING 8706
SWIDTH 1008 0
DWIDTH 14 0
BBX 16 14 0 0
BITMAP
07E0
0FF0
0E78
1C38
3C1C
FC0C
380D
7F6F
700F
700E
799C
3DB8
0250
0180
ENDCHAR
STARTCHAR 2206
ENCODING 8710
SWIDTH 1008 0
DWIDTH 14 0
BBX 16 14 0 0
BITMAP
07E0
0FF0
0E78
1C38
3C1C
FC0C
380D
7F6F
700F
700E
799C
3DB8
0250
0180
ENDCHAR
STARTCHAR 220F
ENCODING 8719
SWIDTH 504 0
DWIDTH 7 0
BBX 8 13 0 -2
BITMAP
FE
81
81
C9
C9
49
49
49
49
49
49
7F
7E
ENDCHAR
STARTCHAR 2211
ENCODING 8721
SWIDTH 1008 0
DWIDTH 14 0
BBX 16 14 0 0
BITMAP
07E0
0FF0
0E78
1C38
3C1C
FC0C
380D
7F6F
700F
700E
799C
3DB8
0250
0180
ENDCHAR
STARTCHAR 2219
ENCODING 8729
SWIDTH 216 0
DWIDTH 3 0
BBX 4 5 0 -2
BITMAP
60
90
90
F0
60
ENDCHAR
STARTCHAR 221A
ENCODING 8730
SWIDTH 1008 0
DWIDTH 14 0
BBX 16 14 0 0
BITMAP
07E0
0FF0
0E78
1C38
3C1C
FC0C
380D
7F6F
700F
700E
799C
3DB8
0250
0180
ENDCHAR
STARTCHAR 221E
ENCODING 8734
SWIDTH 864 0
DWIDTH 12 0
BBX 12 11 1 0
BITMAP
0100
3DB0
8D90
0000
0C00
6F60
AD90
AD50
0200
2040
32E0
ENDCHAR
STARTCHAR 222B
ENCODING 8747
SWIDTH 360 0
DWIDTH 5 0
BBX 9 16 -2 -5
BITMAP
0700
0880
1080
1780
1700
1400
1400
1400
1400
1400
1400
7400
8400
8C00
F800
7000
ENDCHAR
STARTCHAR 2248
ENCODING 8776
SWIDTH 576 0
DWIDTH 8 0
BBX 9 17 0 -9
BITMAP
3E00
4300
8100
9880
9C80
9C80
8480
C480
7C80
C080
8100
9F00
9F00
8080
C080
7F80
3F00
ENDCHAR
STARTCHAR 2260
ENCODING 8800
SWIDTH 1008 0
DWIDTH 14 0
BBX 16 14 0 0
BITMAP
07E0
0FF0
0E78
1C38
3C1C
FC0C
380D
7F6F
700F
700E
799C
3DB8
0250
0180
ENDCHAR
STARTCHAR 2264
ENCODING 8804
SWIDTH 360 0
DWIDTH 5 0
BBX 6 10 0 -2
BITMAP
30
48
88
88
C8
F8
84
84
FC
F8
ENDCHAR
STARTCHAR 2265
ENCODING 8805
SWIDTH 360 0
DWIDTH 5 0
BBX 6 10 0 -2
BITMAP
E0
90
88
88
98
F8
84
84
FC
F8
ENDCHAR
STARTCHAR 22F2
ENCODING 8946
SWIDTH 576 0
DWIDTH 8 0
BBX 9 17 0 -9
BITMAP
3E00
4300
8100
9880
9C80
9C80
8480
C480
7C80
C080
8100
9F00
9F00
8080
C080
7F80
3F00
ENDCHAR
STARTCHAR 25CA
ENCODING 9674
SWIDTH 1008 0
DWIDTH 14 0
BBX 16 14 0 0
BITMAP
07E0
0FF0
0E78
1C38
3C1C
FC0C
380D
7F6F
700F
700E
799C
3DB8
0250
0180
ENDCHAR
STARTCHAR F001
ENCODING 61441
SWIDTH 720 0
DWIDTH 10 0
BBX 11 13 0 -2
BITMAP
3CC0
4320
8120
99E0
9920
9F20
8120
8120
9F20
9F20
9120
F1E0
60C0
ENDCHAR
STARTCHAR F002
ENCODING 61442
SWIDTH 720 0
DWIDTH 10 0
BBX 11 13 0 -2
BITMAP
3CC0
4320
8120
9920
9920
9F20
8120
8120
9F20
9F20
9120
F1E0
60C0
ENDCHAR
ENDFONT
